<mxfile host="app.diagrams.net" modified="2020-10-29T03:16:46.485Z" agent="5.0 (Macintosh; Intel Mac OS X 10_15_7) AppleWebKit/537.36 (KHTML, like Gecko) Chrome/86.0.4240.111 Safari/537.36" etag="2y7eByuPVlsib6eiBp9q" version="13.8.3" type="github">
  <diagram id="VuNc-gwNl0AD4TM4eQIf" name="Page-1">
    <mxGraphModel dx="1259" dy="786" grid="1" gridSize="10" guides="1" tooltips="1" connect="1" arrows="1" fold="1" page="1" pageScale="1" pageWidth="827" pageHeight="1169" math="0" shadow="0">
      <root>
        <mxCell id="0" />
        <mxCell id="1" parent="0" />
        <mxCell id="2TNIIxDQJw-uDasIuGlE-1" value="" style="endArrow=classic;html=1;strokeWidth=5;strokeColor=#FF9999;" edge="1" parent="1">
          <mxGeometry relative="1" as="geometry">
            <mxPoint x="170" y="170" as="sourcePoint" />
            <mxPoint x="710" y="170" as="targetPoint" />
          </mxGeometry>
        </mxCell>
        <mxCell id="2TNIIxDQJw-uDasIuGlE-2" value="stream" style="edgeLabel;resizable=0;html=1;align=center;verticalAlign=middle;" connectable="0" vertex="1" parent="2TNIIxDQJw-uDasIuGlE-1">
          <mxGeometry relative="1" as="geometry" />
        </mxCell>
        <mxCell id="2TNIIxDQJw-uDasIuGlE-3" value="" style="endArrow=classic;html=1;strokeWidth=1;strokeColor=#1A1A1A;" edge="1" parent="1">
          <mxGeometry width="50" height="50" relative="1" as="geometry">
            <mxPoint x="250" y="200" as="sourcePoint" />
            <mxPoint x="250" y="280" as="targetPoint" />
          </mxGeometry>
        </mxCell>
        <mxCell id="2TNIIxDQJw-uDasIuGlE-4" value="" style="endArrow=classic;html=1;strokeWidth=1;strokeColor=#1A1A1A;" edge="1" parent="1">
          <mxGeometry width="50" height="50" relative="1" as="geometry">
            <mxPoint x="320" y="200" as="sourcePoint" />
            <mxPoint x="320" y="280" as="targetPoint" />
          </mxGeometry>
        </mxCell>
        <mxCell id="2TNIIxDQJw-uDasIuGlE-5" value="" style="endArrow=classic;html=1;strokeWidth=1;strokeColor=#1A1A1A;" edge="1" parent="1">
          <mxGeometry width="50" height="50" relative="1" as="geometry">
            <mxPoint x="590" y="200" as="sourcePoint" />
            <mxPoint x="590" y="280" as="targetPoint" />
          </mxGeometry>
        </mxCell>
        <mxCell id="2TNIIxDQJw-uDasIuGlE-6" value="$$channel like &#39;%yingyongbao%&#39; &lt;br&gt;and $$version_code &amp;lt;6.0 &lt;br&gt;and $$event_name=&#39;follow&#39;" style="text;html=1;strokeColor=none;fillColor=none;align=center;verticalAlign=middle;whiteSpace=wrap;rounded=0;" vertex="1" parent="1">
          <mxGeometry x="310" y="220" width="296" height="30" as="geometry" />
        </mxCell>
        <mxCell id="2TNIIxDQJw-uDasIuGlE-7" value="follow_uid&lt;br&gt;(158xxxx..1)" style="rounded=0;whiteSpace=wrap;html=1;strokeColor=#d6b656;fillColor=#E6E6E6;" vertex="1" parent="1">
          <mxGeometry x="200" y="330" width="130" height="70" as="geometry" />
        </mxCell>
        <mxCell id="2TNIIxDQJw-uDasIuGlE-11" value="uid(160....1)" style="rounded=0;whiteSpace=wrap;html=1;" vertex="1" parent="1">
          <mxGeometry x="330" y="330" width="310" height="20" as="geometry" />
        </mxCell>
        <mxCell id="2TNIIxDQJw-uDasIuGlE-12" value="uid(160....2)" style="rounded=0;whiteSpace=wrap;html=1;" vertex="1" parent="1">
          <mxGeometry x="330" y="350" width="310" height="20" as="geometry" />
        </mxCell>
        <mxCell id="2TNIIxDQJw-uDasIuGlE-13" value="&lt;b&gt;&lt;font style=&quot;font-size: 16px&quot;&gt;.......&lt;/font&gt;&lt;/b&gt;" style="rounded=0;whiteSpace=wrap;html=1;" vertex="1" parent="1">
          <mxGeometry x="200" y="400" width="130" height="70" as="geometry" />
        </mxCell>
        <mxCell id="2TNIIxDQJw-uDasIuGlE-14" value="uid(160....3)" style="rounded=0;whiteSpace=wrap;html=1;" vertex="1" parent="1">
          <mxGeometry x="330" y="370" width="310" height="20" as="geometry" />
        </mxCell>
        <mxCell id="2TNIIxDQJw-uDasIuGlE-15" value="&lt;b style=&quot;font-size: 15px&quot;&gt;.&lt;br&gt;.&lt;br&gt;.&lt;br&gt;.&lt;br&gt;&lt;/b&gt;" style="text;html=1;strokeColor=none;fillColor=none;align=center;verticalAlign=middle;whiteSpace=wrap;rounded=0;" vertex="1" parent="1">
          <mxGeometry x="462.5" y="370" width="45" height="120" as="geometry" />
        </mxCell>
      </root>
    </mxGraphModel>
  </diagram>
</mxfile>
